<svg viewBox="0 0 296.65 118.66" xmlns="http://www.w3.org/2000/svg"><path d="m0 0v118.66h296.65v-118.66zm148.35 112.73c-82.74 0-142.42-24.23-142.42-53.4s59.72-53.4 142.42-53.4 142.37 24.23 142.37 53.4-59.63 53.4-142.37 53.4zm51.42-44.81c1.14 0 2.25 0 3.39-.56v10.71h-46.27c.57-1.12.57-2.2.57-3.31v-31.92c0-1.12 0-2.19-.57-3.35h23.96c-.42.82-.53 1.62-.56 2.42v26h19.47zm41.15-28.4c.58 1.11.58 2.19.58 3.31v21.76c0 2.35-1.9 4.25-4.25 4.25h-3.67c-2.35 0-4.25-1.9-4.25-4.25v-21.76c0-1.12 0-2.2.57-3.31h-24.29c.57 1.11.57 2.19.57 3.31v21.06c0 7.83 6.35 14.17 14.17 14.17h30.11c7.83 0 14.17-6.35 14.17-14.17v-21.06c0-1.12 0-2.2.57-3.31h-24.29zm-150.46 3.31c0-1.12 0-2.2.58-3.31h-24.29c.57 1.11.57 2.19.57 3.31v10.85h-12.17v-10.85c0-1.12 0-2.2.57-3.31h-24.28c.57 1.11.57 2.19.57 3.31v31.92c0 1.11 0 2.19-.57 3.31h24.28c-.57-1.12-.57-2.2-.57-3.31v-10.86h12.17v10.86c0 1.11 0 2.19-.57 3.31h24.29c-.58-1.12-.58-2.2-.58-3.31zm31.35 36.14c2.07 0 4.15.07 6.22-.02s4.13-.3 6.18-.54c3.79-.43 7.47-1.24 10.93-2.74 5.3-2.29 8.13-6.82 7.46-11.96-.29-2.28-1.1-4.31-3.02-5.94-2.5-2.12-5.59-3.33-8.82-4.11-4.89-1.2-9.88-2.08-14.82-3.14-1.68-.36-3.33-.83-4.97-1.3-.74-.21-1.1-.8-1.09-1.47 0-.67.37-1.24 1.11-1.45.89-.26 1.8-.56 2.72-.62 4.01-.24 7.97.17 11.87 1.03 3.75.82 11.36 2.81 13.72 5.33.05-1.33-.46-13.27-.46-13.27s-18.47-.18-22.24-.19c-3.11 0-6.22.11-9.34.39-4.38.39-8.68 1.14-12.65 2.95-6.48 2.95-8.2 7.3-7.02 13.08.73 3.59 3.41 5.85 6.91 7.41 3.2 1.43 6.63 2.3 10.14 2.91 2.87.49 5.75.91 8.62 1.42 1.82.32 3.62.72 5.41 1.14.74.18 1.3.66 1.34 1.39.04.74-.5 1.26-1.19 1.5-1.01.35-2.07.7-3.14.78-5.2.41-10.35.17-15.4-1.13-3.6-.93-11.13-3.79-12.76-6.15.17 2.82.48 13.8.48 13.8s23.78 1.04 23.79.92z" fill="#0058AB" fill-rule="evenodd"/></svg>